<svg xmlns="http://www.w3.org/2000/svg" xmlns:xlink="http://www.w3.org/1999/xlink" width="500" zoomAndPan="magnify" viewBox="0 0 375 187.499995" height="250" preserveAspectRatio="xMidYMid meet" version="1.0"><defs><g/>
<clipPath id="1ebbefdc61">
	<path d="M 0.5 0 L 374.5 0 L 374.5 187 L 0.5 187 Z M 0.5 0 " clip-rule="nonzero"/>
</clipPath></defs>
	<g clip-path="url(#1ebbefdc61)">
	<path fill="#ffffff" d="M 0.5 0 L 374.5 0 L 374.5 187 L 0.5 187 Z M 0.5 0 " fill-opacity="1" fill-rule="nonzero"/>
	<path fill="#dc5c00" d="M 0.5 0 L 374.5 0 L 374.5 187 L 0.5 187 Z M 0.5 0 " fill-opacity="1" fill-rule="nonzero"/>
	</g>
	<g fill="#ffffff" fill-opacity="1"><g transform="translate(46.099, 149.43829)"><g><path d="M 5.28125 -119.484375 L 37.6875 -119.484375 C 46.40625 -119.484375 52.734375 -117.347656 56.671875 -113.078125 C 60.617188 -108.816406 62.59375 -101.863281 62.59375 -92.21875 L 62.59375 -86.9375 C 62.59375 -75.53125 58.515625 -68.710938 50.359375 -66.484375 C 55.359375 -65.191406 58.878906 -62.179688 60.921875 -57.453125 C 62.960938 -52.722656 63.984375 -46.460938 63.984375 -38.671875 C 63.984375 -25.960938 62.082031 -16.335938 58.28125 -9.796875 C 54.476562 -3.265625 47.613281 0 37.6875 0 L 5.28125 0 Z M 33.515625 -74.546875 C 35.554688 -74.546875 36.945312 -75.3125 37.6875 -76.84375 C 38.4375 -78.375 38.8125 -80.53125 38.8125 -83.3125 L 38.8125 -95.28125 C 38.8125 -99.175781 37.09375 -101.125 33.65625 -101.125 L 28.65625 -101.125 L 28.65625 -74.546875 Z M 31.015625 -21 C 37.234375 -21 40.34375 -23.96875 40.34375 -29.90625 L 40.34375 -44.78125 C 40.34375 -48.40625 39.804688 -51.144531 38.734375 -53 C 37.671875 -54.851562 35.796875 -55.78125 33.109375 -55.78125 L 28.65625 -55.78125 L 28.65625 -21.140625 Z M 31.015625 -21 "/></g></g></g>
	<g fill="#ffffff" fill-opacity="1"><g transform="translate(105.075917, 149.43829)"><g><path d="M 34.5 1.109375 C 14.1875 1.109375 4.03125 -9.414062 4.03125 -30.46875 L 4.03125 -71.359375 C 4.03125 -81.003906 6.742188 -88.675781 12.171875 -94.375 C 17.597656 -100.070312 25.039062 -102.921875 34.5 -102.921875 C 43.957031 -102.921875 51.394531 -100.070312 56.8125 -94.375 C 62.238281 -88.675781 64.953125 -81.003906 64.953125 -71.359375 L 64.953125 -30.46875 C 64.953125 -9.414062 54.800781 1.109375 34.5 1.109375 Z M 34.5 -17.671875 C 36.445312 -17.671875 37.882812 -18.363281 38.8125 -19.75 C 39.738281 -21.144531 40.203125 -23.046875 40.203125 -25.453125 L 40.203125 -75.25 C 40.203125 -81.1875 38.300781 -84.15625 34.5 -84.15625 C 30.695312 -84.15625 28.796875 -81.1875 28.796875 -75.25 L 28.796875 -25.453125 C 28.796875 -23.046875 29.257812 -21.144531 30.1875 -19.75 C 31.113281 -18.363281 32.550781 -17.671875 34.5 -17.671875 Z M 34.5 -17.671875 "/></g></g></g>
	<g fill="#ffffff" fill-opacity="1"><g transform="translate(166.556568, 149.43829)"><g><path d="M 34.5 1.109375 C 14.1875 1.109375 4.03125 -9.414062 4.03125 -30.46875 L 4.03125 -71.359375 C 4.03125 -81.003906 6.742188 -88.675781 12.171875 -94.375 C 17.597656 -100.070312 25.039062 -102.921875 34.5 -102.921875 C 43.957031 -102.921875 51.394531 -100.070312 56.8125 -94.375 C 62.238281 -88.675781 64.953125 -81.003906 64.953125 -71.359375 L 64.953125 -30.46875 C 64.953125 -9.414062 54.800781 1.109375 34.5 1.109375 Z M 34.5 -17.671875 C 36.445312 -17.671875 37.882812 -18.363281 38.8125 -19.75 C 39.738281 -21.144531 40.203125 -23.046875 40.203125 -25.453125 L 40.203125 -75.25 C 40.203125 -81.1875 38.300781 -84.15625 34.5 -84.15625 C 30.695312 -84.15625 28.796875 -81.1875 28.796875 -75.25 L 28.796875 -25.453125 C 28.796875 -23.046875 29.257812 -21.144531 30.1875 -19.75 C 31.113281 -18.363281 32.550781 -17.671875 34.5 -17.671875 Z M 34.5 -17.671875 "/></g></g></g>
	<g fill="#ffffff" fill-opacity="1"><g transform="translate(228.037226, 149.43829)"><g><path d="M 32.828125 1.109375 C 12.703125 1.109375 2.640625 -9.085938 2.640625 -29.484375 L 2.78125 -37.5625 L 27.125 -37.5625 L 27.265625 -25.59375 C 27.265625 -23.1875 27.726562 -21.351562 28.65625 -20.09375 C 29.582031 -18.84375 31.113281 -18.21875 33.25 -18.21875 C 36.488281 -18.21875 38.109375 -20.863281 38.109375 -26.15625 C 38.109375 -30.039062 37.34375 -33.097656 35.8125 -35.328125 C 34.28125 -37.554688 31.847656 -39.921875 28.515625 -42.421875 L 15.578125 -52.4375 C 11.128906 -55.863281 7.929688 -59.410156 5.984375 -63.078125 C 4.035156 -66.742188 3.0625 -71.914062 3.0625 -78.59375 C 3.0625 -83.78125 4.425781 -88.203125 7.15625 -91.859375 C 9.894531 -95.523438 13.535156 -98.285156 18.078125 -100.140625 C 22.617188 -101.992188 27.675781 -102.921875 33.25 -102.921875 C 53 -102.921875 62.875 -93.09375 62.875 -73.4375 L 62.875 -71.5 L 37.6875 -71.5 L 37.6875 -75.390625 C 37.6875 -77.796875 37.289062 -79.859375 36.5 -81.578125 C 35.71875 -83.296875 34.398438 -84.15625 32.546875 -84.15625 C 30.878906 -84.15625 29.601562 -83.664062 28.71875 -82.6875 C 27.84375 -81.71875 27.40625 -80.398438 27.40625 -78.734375 C 27.40625 -75.015625 28.84375 -72.140625 31.71875 -70.109375 L 46.734375 -59.109375 C 52.109375 -55.128906 56.234375 -50.796875 59.109375 -46.109375 C 61.984375 -41.421875 63.421875 -35.507812 63.421875 -28.375 C 63.421875 -18.914062 60.734375 -11.632812 55.359375 -6.53125 C 49.984375 -1.4375 42.472656 1.109375 32.828125 1.109375 Z M 32.828125 1.109375 "/></g></g></g>
	<g fill="#ffffff" fill-opacity="1"><g transform="translate(286.457744, 149.43829)"><g><path d="M 25.875 1.109375 C 19.476562 1.109375 15.070312 -0.234375 12.65625 -2.921875 C 10.25 -5.609375 9.046875 -9.921875 9.046875 -15.859375 L 9.046875 -79.421875 L 2.21875 -79.421875 L 2.21875 -97.921875 L 9.046875 -97.921875 L 9.046875 -119.484375 L 32.6875 -119.484375 L 32.6875 -97.921875 L 39.640625 -97.921875 L 39.640625 -79.421875 L 32.6875 -79.421875 L 32.6875 -22.25 C 32.6875 -20.488281 32.820312 -19.191406 33.09375 -18.359375 C 33.375 -17.523438 34.117188 -17.109375 35.328125 -17.109375 C 36.253906 -17.109375 37.132812 -17.15625 37.96875 -17.25 C 38.800781 -17.34375 39.359375 -17.390625 39.640625 -17.390625 L 39.640625 -0.703125 C 38.253906 -0.328125 36.238281 0.0664062 33.59375 0.484375 C 30.945312 0.898438 28.375 1.109375 25.875 1.109375 Z M 25.875 1.109375 "/></g></g></g>
</svg>