<svg xmlns="http://www.w3.org/2000/svg" xmlns:xlink="http://www.w3.org/1999/xlink" width="100" zoomAndPan="magnify" viewBox="0 0 75 74.999997" height="100" preserveAspectRatio="xMidYMid meet" version="1.0"><defs><clipPath id="b92cb106d6"><path d="M 4.332031 17.828125 L 51.785156 17.828125 L 51.785156 27.664062 L 4.332031 27.664062 Z M 4.332031 17.828125 " clip-rule="nonzero"/></clipPath><clipPath id="5fc5322ead"><path d="M 18.382812 44.863281 L 51.785156 44.863281 L 51.785156 54.199219 L 18.382812 54.199219 Z M 18.382812 44.863281 " clip-rule="nonzero"/></clipPath><clipPath id="3681413ebe"><path d="M 12.101562 29.988281 L 48.246094 29.988281 L 48.246094 39.324219 L 12.101562 39.324219 Z M 12.101562 29.988281 " clip-rule="nonzero"/></clipPath><clipPath id="a6f50dbaca"><path d="M 39.28125 17.828125 L 61.496094 17.828125 L 61.496094 39.953125 L 39.28125 39.953125 Z M 39.28125 17.828125 " clip-rule="nonzero"/></clipPath><clipPath id="8acd659023"><path d="M 50.363281 17.828125 C 44.242188 17.828125 39.28125 22.78125 39.28125 28.890625 C 39.28125 35 44.242188 39.953125 50.363281 39.953125 C 56.480469 39.953125 61.441406 35 61.441406 28.890625 C 61.441406 22.78125 56.480469 17.828125 50.363281 17.828125 Z M 50.363281 17.828125 " clip-rule="nonzero"/></clipPath><clipPath id="11353320c1"><path d="M 39.28125 34.65625 L 61.496094 34.65625 L 61.496094 54.199219 L 39.28125 54.199219 Z M 39.28125 34.65625 " clip-rule="nonzero"/></clipPath><clipPath id="4cc85ca86c"><path d="M 50.363281 34.65625 C 44.242188 34.65625 39.28125 39.03125 39.28125 44.425781 C 39.28125 49.824219 44.242188 54.199219 50.363281 54.199219 C 56.480469 54.199219 61.441406 49.824219 61.441406 44.425781 C 61.441406 39.03125 56.480469 34.65625 50.363281 34.65625 Z M 50.363281 34.65625 " clip-rule="nonzero"/></clipPath><clipPath id="0b9925cf40"><path d="M 0 14 L 31 14 L 31 61 L 0 61 Z M 0 14 " clip-rule="nonzero"/></clipPath><clipPath id="dc4b1ba780"><path d="M 7.636719 14.507812 L 30.191406 54.609375 L 19.660156 60.53125 L -2.894531 20.429688 Z M 7.636719 14.507812 " clip-rule="nonzero"/></clipPath><clipPath id="8cd0661c79"><path d="M 7.636719 14.507812 L 30.167969 54.566406 L 19.640625 60.488281 L -2.894531 20.429688 Z M 7.636719 14.507812 " clip-rule="nonzero"/></clipPath><clipPath id="10186fd742"><path d="M 4.332031 39.324219 L 54.371094 39.324219 L 54.371094 46.800781 L 4.332031 46.800781 Z M 4.332031 39.324219 " clip-rule="nonzero"/></clipPath><clipPath id="0a742ea679"><path d="M 8.070312 39.324219 L 50.613281 39.324219 C 52.675781 39.324219 54.351562 40.996094 54.351562 43.0625 C 54.351562 45.128906 52.675781 46.800781 50.613281 46.800781 L 8.070312 46.800781 C 6.003906 46.800781 4.332031 45.128906 4.332031 43.0625 C 4.332031 40.996094 6.003906 39.324219 8.070312 39.324219 Z M 8.070312 39.324219 " clip-rule="nonzero"/></clipPath><clipPath id="f2f0c76052"><path d="M 0 25.152344 L 54.363281 25.152344 L 54.363281 32.628906 L 0 32.628906 Z M 0 25.152344 " clip-rule="nonzero"/></clipPath><clipPath id="4f1f43a496"><path d="M 0.851562 25.152344 L 50.613281 25.152344 C 52.675781 25.152344 54.351562 26.824219 54.351562 28.890625 C 54.351562 30.957031 52.675781 32.628906 50.613281 32.628906 L 0.851562 32.628906 C -1.214844 32.628906 -2.886719 30.957031 -2.886719 28.890625 C -2.886719 26.824219 -1.214844 25.152344 0.851562 25.152344 Z M 0.851562 25.152344 " clip-rule="nonzero"/></clipPath></defs><rect x="-7.5" width="90" fill="#ffffff" y="-7.5" height="89.999996" fill-opacity="1"/><rect x="-7.5" width="90" fill="#dc5c00" y="-7.5" height="89.999996" fill-opacity="1"/><g clip-path="url(#b92cb106d6)"><path fill="#ffffff" d="M 4.332031 17.828125 L 51.78125 17.828125 L 51.78125 27.664062 L 4.332031 27.664062 Z M 4.332031 17.828125 " fill-opacity="1" fill-rule="nonzero"/></g><g clip-path="url(#5fc5322ead)"><path fill="#ffffff" d="M 18.382812 44.863281 L 51.785156 44.863281 L 51.785156 54.199219 L 18.382812 54.199219 Z M 18.382812 44.863281 " fill-opacity="1" fill-rule="nonzero"/></g><g clip-path="url(#3681413ebe)"><path fill="#ffffff" d="M 12.101562 29.988281 L 48.238281 29.988281 L 48.238281 39.324219 L 12.101562 39.324219 Z M 12.101562 29.988281 " fill-opacity="1" fill-rule="nonzero"/></g><g clip-path="url(#a6f50dbaca)"><g clip-path="url(#8acd659023)"><path fill="#ffffff" d="M 39.28125 17.828125 L 61.410156 17.828125 L 61.410156 39.953125 L 39.28125 39.953125 Z M 39.28125 17.828125 " fill-opacity="1" fill-rule="nonzero"/></g></g><g clip-path="url(#11353320c1)"><g clip-path="url(#4cc85ca86c)"><path fill="#ffffff" d="M 39.28125 34.65625 L 61.421875 34.65625 L 61.421875 54.199219 L 39.28125 54.199219 Z M 39.28125 34.65625 " fill-opacity="1" fill-rule="nonzero"/></g></g><g clip-path="url(#0b9925cf40)"><g clip-path="url(#dc4b1ba780)"><g clip-path="url(#8cd0661c79)"><path fill="#dc5c00" d="M 7.636719 14.507812 L 30.167969 54.566406 L 19.636719 60.488281 L -2.894531 20.429688 Z M 7.636719 14.507812 " fill-opacity="1" fill-rule="nonzero"/></g></g></g><g clip-path="url(#10186fd742)"><g clip-path="url(#0a742ea679)"><path fill="#dc5c00" d="M 4.332031 39.324219 L 54.339844 39.324219 L 54.339844 46.800781 L 4.332031 46.800781 Z M 4.332031 39.324219 " fill-opacity="1" fill-rule="nonzero"/></g></g><g clip-path="url(#f2f0c76052)"><g clip-path="url(#4f1f43a496)"><path fill="#dc5c00" d="M -2.886719 25.152344 L 54.363281 25.152344 L 54.363281 32.628906 L -2.886719 32.628906 Z M -2.886719 25.152344 " fill-opacity="1" fill-rule="nonzero"/></g></g></svg>